<?xml version="1.0" standalone="no"?>
<!DOCTYPE svg PUBLIC "-//W3C//DTD SVG 20010904//EN"
 "http://www.w3.org/TR/2001/REC-SVG-20010904/DTD/svg10.dtd">
<svg version="1.0" xmlns="http://www.w3.org/2000/svg"
 width="250px" height="150px" viewBox="0 0 1280.000000 1280.000000"
 preserveAspectRatio="xMidYMid meet">
<metadata>
Created by potrace 1.15, written by Peter Selinger 2001-2017
</metadata>
<g transform="translate(0.000000,1280.000000) scale(0.100000,-0.100000)"
fill="#000000" stroke="none">
<path d="M6814 10234 c3 -22 31 -222 61 -445 l55 -406 -29 -204 c-17 -112 -29
-205 -27 -206 5 -6 208 -35 212 -30 2 2 12 58 21 123 l16 119 -52 510 c-28
281 -51 517 -51 526 0 13 -17 19 -82 29 -46 6 -94 14 -107 17 -22 5 -23 4 -17
-33z"/>
<path d="M5890 10238 c-6 -146 -37 -1253 -36 -1255 0 0 52 -4 114 -8 l112 -8
1 74 c0 41 8 328 17 637 9 310 15 566 13 568 -2 2 -53 4 -113 4 -79 0 -108 -3
-108 -12z"/>
<path d="M6340 10108 c0 -73 -3 -197 -7 -276 l-6 -143 -96 2 -96 2 -3 -72 -3
-71 97 0 97 0 -4 -292 -4 -293 113 -3 112 -3 0 48 c0 26 7 311 16 631 15 501
15 585 3 593 -8 5 -60 9 -116 9 l-103 0 0 -132z"/>
<path d="M5345 10192 c-143 -8 -262 -17 -265 -21 -3 -3 -4 -41 -2 -83 l4 -78
46 0 c52 0 576 30 578 33 1 1 -1 39 -4 85 l-5 82 -46 -1 c-25 -1 -163 -8 -306
-17z"/>
<path d="M7190 9949 l-82 -251 18 -179 c10 -99 21 -176 25 -172 10 11 359 801
359 813 0 6 -6 10 -12 10 -7 0 -58 7 -112 15 -55 8 -103 15 -107 15 -4 0 -44
-113 -89 -251z"/>
<path d="M7807 9516 c-96 -336 -173 -612 -172 -614 6 -6 209 -61 213 -57 3 3
352 1213 352 1221 0 1 -19 7 -42 13 -24 6 -73 19 -109 30 l-67 19 -175 -612z"/>
<path d="M4557 10065 c-48 -7 -91 -15 -94 -19 -6 -5 163 -1245 171 -1253 9
-10 209 22 213 34 4 10 -147 1136 -164 1226 -6 30 -2 30 -126 12z"/>
<path d="M8215 9988 c-9 -34 -19 -67 -21 -73 -4 -10 199 -75 232 -75 11 0 50
137 42 146 -7 6 -209 64 -224 64 -6 0 -19 -28 -29 -62z"/>
<path d="M5323 9983 c-32 -4 -33 -5 -33 -55 0 -44 46 -906 52 -983 l3 -30 105
3 c58 2 109 7 113 11 4 4 -2 171 -13 372 -11 200 -22 409 -25 464 -3 55 -8
128 -11 163 l-6 62 -76 -2 c-42 0 -92 -3 -109 -5z"/>
<path d="M8762 9899 c-57 -11 -98 -37 -159 -102 -66 -69 -90 -120 -208 -426
-114 -298 -133 -375 -117 -474 14 -94 51 -151 131 -204 34 -24 66 -43 70 -43
5 0 22 35 38 78 l31 77 -30 34 c-28 32 -30 38 -26 100 4 54 25 119 118 361
141 368 165 407 251 419 40 6 41 7 70 81 16 41 25 78 21 81 -7 8 -118 30 -136
28 -6 -1 -30 -5 -54 -10z"/>
<path d="M3827 9856 l-78 -21 6 -75 c3 -41 14 -302 25 -580 11 -278 23 -537
26 -576 l5 -71 97 25 c53 13 100 27 104 31 4 3 -6 170 -22 371 -16 201 -36
462 -44 580 -21 277 -27 340 -35 339 -3 -1 -41 -11 -84 -23z"/>
<path d="M3961 9853 c-1 -13 6 -118 15 -235 l15 -213 75 -170 c41 -94 74 -173
74 -177 0 -4 -27 -15 -61 -24 l-61 -17 7 -61 c4 -34 9 -63 11 -65 2 -2 32 4
68 13 36 9 71 16 79 16 8 0 39 -53 73 -125 37 -78 65 -125 74 -125 31 1 194
46 196 55 2 6 -125 267 -281 580 -156 314 -284 560 -284 548z"/>
<path d="M8963 9788 l-32 -81 29 -27 c27 -25 30 -34 30 -90 0 -54 -13 -96
-111 -353 -121 -318 -145 -371 -181 -404 -29 -27 -75 -45 -98 -38 -14 4 -22
-8 -43 -62 -14 -38 -28 -75 -32 -85 -5 -13 3 -18 45 -27 128 -27 208 -5 295
83 33 34 74 88 92 121 47 92 223 558 240 639 18 87 12 182 -17 242 -24 49 -91
114 -147 142 l-38 20 -32 -80z"/>
<path d="M3220 9625 c-47 -19 -93 -36 -103 -38 -16 -5 -15 -11 9 -79 15 -40
27 -74 28 -75 3 -3 221 78 228 85 3 4 -5 37 -19 75 -18 47 -30 67 -42 66 -9
-1 -54 -16 -101 -34z"/>
<path d="M2955 9529 c-44 -17 -84 -34 -89 -39 -7 -7 207 -611 406 -1147 l19
-52 97 35 c53 20 101 39 105 43 5 5 -336 964 -418 1174 -9 23 -25 21 -120 -14z"/>
<path d="M8085 9529 c-14 -38 -35 -116 -35 -129 0 -11 20 -21 64 -33 36 -9 71
-20 79 -22 10 -4 19 12 32 62 10 37 20 73 22 79 2 6 -25 19 -64 29 -37 10 -74
20 -80 23 -7 2 -15 -2 -18 -9z"/>
<path d="M9644 9515 c-64 -32 -123 -82 -167 -143 -58 -79 -313 -533 -338 -602
-32 -86 -34 -215 -4 -275 21 -43 118 -145 138 -145 7 0 30 33 52 73 l39 74
-22 28 c-31 39 -29 96 6 170 67 140 322 572 362 610 36 36 46 40 91 41 l51 0
40 73 c46 82 46 81 -36 106 -76 23 -153 19 -212 -10z"/>
<path d="M9921 9398 c-35 -64 -38 -75 -26 -89 31 -34 38 -75 20 -134 -15 -53
-299 -564 -352 -633 -37 -49 -81 -73 -127 -70 -39 2 -40 2 -83 -70 l-43 -73
48 -22 c68 -31 190 -31 250 1 66 34 109 71 155 132 64 84 323 546 348 620 30
92 31 200 1 261 -22 45 -120 149 -141 149 -5 0 -28 -33 -50 -72z"/>
<path d="M2457 9237 c-53 -29 -97 -56 -97 -60 0 -5 56 -112 125 -239 69 -126
125 -233 125 -238 0 -4 -35 -27 -77 -50 -43 -23 -79 -43 -81 -45 -5 -5 57
-125 65 -125 3 0 43 20 87 44 l82 45 26 -47 c14 -26 76 -141 138 -255 l112
-208 97 52 c53 28 98 53 100 55 2 2 -588 1100 -603 1121 -1 1 -45 -22 -99 -50z"/>
<path d="M3358 9106 c-31 -12 -60 -24 -63 -28 -8 -8 32 -135 45 -143 12 -7
150 45 150 57 0 5 -10 38 -22 74 -26 72 -26 72 -110 40z"/>
<path d="M10214 8668 c-214 -254 -397 -473 -407 -485 -23 -29 -22 -30 77 -112
l73 -60 250 297 c137 163 322 383 411 488 l161 192 -77 64 c-42 35 -82 67 -88
71 -7 4 -161 -171 -400 -455z"/>
<path d="M2055 9020 c-49 -27 -91 -53 -93 -59 -2 -5 133 -259 298 -565 l302
-555 77 42 c43 23 87 49 98 57 21 15 16 24 -280 572 -166 307 -304 557 -307
557 -3 0 -45 -22 -95 -49z"/>
<path d="M4971 8994 c-52 -7 -96 -16 -98 -18 -4 -4 15 -148 20 -152 8 -6 232
33 232 41 0 6 -4 40 -9 78 -9 77 4 73 -145 51z"/>
<path d="M10756 8906 c-25 -30 -46 -58 -46 -63 0 -5 12 -20 26 -34 58 -54 69
-114 31 -170 -45 -66 -469 -564 -496 -581 -14 -10 -36 -18 -49 -18 -27 0 -93
32 -111 54 -8 9 -16 16 -20 16 -3 0 -28 -28 -56 -61 l-49 -62 34 -28 c62 -52
167 -101 231 -106 52 -5 66 -2 125 27 38 18 89 56 122 89 102 100 423 494 455
556 43 86 48 173 15 247 -23 49 -139 188 -158 188 -4 0 -28 -24 -54 -54z"/>
<path d="M3630 8585 c-36 -14 -84 -32 -106 -40 l-42 -16 27 -70 c14 -39 28
-71 31 -72 11 -2 230 78 230 84 0 23 -50 134 -61 136 -8 1 -43 -9 -79 -22z"/>
<path d="M5912 7058 c-260 -37 -682 -264 -1232 -662 -353 -256 -643 -551 -893
-909 -356 -510 -470 -779 -484 -1142 -15 -394 120 -741 396 -1016 189 -188
393 -300 628 -345 123 -23 329 -15 473 19 205 49 435 145 600 251 36 23 70 45
76 49 7 4 31 -26 62 -76 88 -144 185 -242 352 -356 245 -168 540 -280 865
-327 146 -22 490 -24 640 -5 310 39 602 125 870 257 158 78 275 152 448 286
894 694 1234 1186 1062 1535 -115 233 -431 396 -1069 553 -562 138 -867 179
-1246 167 -255 -8 -537 -42 -803 -96 -48 -9 -88 -16 -90 -15 -1 1 3 76 10 166
19 248 18 714 -2 883 -57 495 -211 746 -482 785 -78 11 -94 11 -181 -2z"/>
<path d="M2556 2470 c-130 -19 -197 -25 -213 -19 -38 14 -78 11 -101 -9 -14
-12 -53 -23 -109 -31 -224 -32 -419 -82 -658 -166 -378 -135 -456 -151 -676
-141 -218 10 -250 -13 -137 -97 214 -158 711 -333 1109 -391 264 -39 603 -1
1019 114 l105 29 75 -48 c95 -61 208 -118 335 -168 80 -32 137 -46 282 -69
100 -16 179 -32 177 -36 -3 -5 -3 -8 -1 -8 2 0 73 -6 158 -14 269 -25 339 -29
584 -30 291 -1 398 -15 860 -110 94 -19 328 -64 520 -100 319 -59 462 -83 675
-116 41 -7 107 -20 145 -31 547 -145 1623 -203 2487 -134 104 8 203 17 220 20
18 2 85 11 148 20 331 46 577 119 645 192 86 94 -46 188 -375 268 -110 26
-358 69 -470 80 -36 4 -90 13 -120 20 -62 15 -449 93 -615 124 -236 43 -568
102 -740 130 -99 17 -214 40 -255 51 -229 63 -657 115 -1150 141 -289 15
-1018 6 -1269 -15 -215 -18 -253 -24 -244 -39 3 -6 -18 3 -48 20 -128 72 -370
194 -439 222 -41 16 -136 41 -210 55 -74 14 -247 47 -385 73 l-249 47 -37 37
c-24 24 -58 44 -100 58 -103 33 -587 102 -708 100 -25 0 -131 -13 -235 -29z"/>
</g>
</svg>
