<?xml version="1.0" standalone="no"?>
<!DOCTYPE svg PUBLIC "-//W3C//DTD SVG 20010904//EN"
 "http://www.w3.org/TR/2001/REC-SVG-20010904/DTD/svg10.dtd">
<svg version="1.0" xmlns="http://www.w3.org/2000/svg"
 width="250px" height="150px" viewBox="0 0 1280.000000 1063.000000"
 preserveAspectRatio="xMidYMid meet">
<metadata>
Created by potrace 1.15, written by Peter Selinger 2001-2017
</metadata>
<g transform="translate(0.000000,1063.000000) scale(0.100000,-0.100000)"
fill="#000000" stroke="none">
<path d="M1620 8216 l0 -2415 -30 -28 c-16 -15 -52 -66 -80 -113 -38 -64 -50
-95 -50 -125 0 -51 30 -101 75 -122 19 -9 35 -24 35 -33 0 -35 -66 -147 -114
-195 -54 -53 -297 -202 -669 -409 -455 -253 -629 -408 -720 -636 -59 -150 -57
-83 -57 -1695 l-1 -1477 25 -42 c77 -132 248 -213 595 -282 122 -25 145 -32
151 -50 5 -12 16 -24 25 -28 9 -3 367 -6 796 -6 766 0 779 0 799 20 11 11 20
24 20 29 0 4 33 13 73 20 92 15 415 106 485 137 30 13 81 50 119 86 l65 63
191 0 c135 1 217 6 277 17 47 9 110 20 142 23 56 7 56 7 102 -35 26 -24 48
-41 50 -39 1 2 9 43 15 92 19 130 9 142 -189 207 -176 59 -166 48 -113 127 68
103 167 314 207 442 56 177 70 358 35 434 -16 36 -30 30 -43 -18 l-11 -39 -19
42 c-27 60 -56 52 -56 -15 l0 -25 -45 36 -44 37 -15 -36 c-13 -29 -20 -35 -35
-30 -16 5 -22 -1 -30 -32 -6 -21 -11 -46 -11 -55 0 -23 -9 -23 -36 3 -26 24
-44 18 -44 -15 0 -13 -3 -38 -6 -55 -5 -26 -11 -31 -34 -31 -29 0 -40 -15 -40
-53 0 -15 -11 -27 -33 -37 -26 -12 -33 -22 -35 -51 -2 -27 -9 -39 -28 -47 -13
-7 -24 -20 -24 -30 0 -17 -87 -112 -103 -112 -4 0 -7 522 -7 1160 2 1086 0
1165 -16 1230 l-18 70 30 32 c51 54 79 96 167 253 111 194 113 197 171 204
l47 6 -56 59 c-55 58 -57 58 -103 54 -37 -4 -67 -19 -145 -72 -111 -75 -125
-76 -154 -3 -40 98 -109 229 -171 322 -116 173 -272 309 -332 290 l-20 -6 20
-26 c25 -32 22 -35 -18 -24 -40 12 -46 3 -22 -36 l18 -31 -46 -7 c-65 -10 -68
-14 -36 -41 29 -24 29 -24 9 -40 -20 -15 -19 -16 18 -50 20 -19 37 -36 37 -38
0 -3 -16 -10 -35 -16 l-36 -12 37 -40 c26 -29 33 -43 25 -51 -16 -16 -14 -24
14 -49 17 -16 23 -29 19 -46 -4 -12 -10 -22 -15 -22 -5 0 -64 31 -131 68 -68
38 -193 106 -278 151 -183 98 -326 191 -406 264 -63 57 -121 140 -130 186 -6
26 -2 32 34 55 51 32 59 48 78 142 19 102 18 115 -5 85 l-18 -24 -31 23 c-19
14 -51 25 -81 28 -35 3 -51 9 -51 19 0 20 44 61 74 69 l26 6 0 2434 c0 2157
-2 2434 -15 2434 -13 0 -15 -275 -15 -2414z m-1 -2667 c28 -12 51 -25 51 -29
0 -21 -44 -60 -69 -60 -45 0 -71 26 -71 71 0 47 12 49 89 18z m46 -461 c26
-59 94 -192 152 -295 213 -385 247 -482 268 -780 l7 -93 -260 0 -260 0 4 103
c6 144 24 973 24 1092 0 57 4 95 9 90 5 -6 30 -58 56 -117z m-92 -25 c-8 -296
-23 -994 -23 -1065 l0 -78 -225 0 c-216 0 -225 1 -225 19 0 36 30 255 45 329
31 153 108 328 253 577 32 55 83 155 113 222 30 68 57 123 60 123 3 0 4 -57 2
-127z m152 25 c33 -38 162 -172 287 -296 303 -300 383 -415 443 -632 l29 -100
-20 -68 -19 -67 -162 -3 -161 -2 -7 72 c-25 281 -70 447 -173 641 -44 83 -208
379 -268 485 -14 23 -21 42 -17 41 4 0 35 -32 68 -71z m-205 37 c-16 -42 -44
-94 -149 -273 -200 -341 -230 -421 -272 -707 -16 -110 -29 -206 -29 -212 0
-10 -44 -13 -185 -13 l-185 0 0 23 c1 12 7 72 14 134 13 106 16 117 76 230 34
65 82 147 108 183 25 36 166 187 312 336 147 148 275 282 285 297 22 34 38 35
25 2z m700 -360 c256 -179 426 -329 456 -401 8 -19 37 -68 64 -110 54 -83 62
-117 29 -135 -12 -6 -73 -26 -137 -44 -122 -35 -132 -35 -132 11 0 46 -53 203
-95 281 -68 128 -120 188 -412 477 -150 148 -273 273 -273 278 0 4 78 -50 173
-120 94 -71 242 -177 327 -237z m-820 279 c-30 -30 -153 -153 -273 -272 -238
-236 -281 -288 -353 -432 -38 -77 -52 -121 -75 -235 -16 -77 -29 -150 -29
-162 0 -23 -1 -23 -165 -23 l-166 0 7 38 c31 181 87 312 190 440 103 129 173
186 535 434 124 85 258 180 298 211 40 31 76 57 79 57 4 0 -18 -25 -48 -56z
m-100 -18 c0 -2 -107 -80 -237 -172 -394 -280 -510 -376 -598 -499 -78 -110
-130 -244 -142 -366 l-6 -69 -138 0 -138 0 6 38 c12 83 37 161 76 237 33 65
63 102 156 195 144 143 221 196 626 421 171 95 326 183 345 195 34 22 50 28
50 20z m945 -191 c149 -81 289 -159 312 -171 57 -33 102 -132 94 -209 -1 -5
-36 24 -78 66 -109 106 -151 138 -393 304 -118 81 -224 156 -235 168 l-20 20
25 -15 c14 -8 147 -81 295 -163z m888 -792 c3 -5 8 -34 12 -65 l7 -58 -36 0
c-30 0 -37 4 -42 25 -8 31 1 69 22 89 17 17 30 20 37 9z m-109 -65 c-13 -46
-34 -58 -96 -58 -58 0 -58 0 -58 30 0 25 4 30 33 34 126 21 130 21 121 -6z
m-2714 -1533 l0 -1405 -135 0 -135 0 0 1405 0 1405 135 0 135 0 0 -1405z m360
0 l0 -1405 -160 0 -160 0 0 1405 0 1405 160 0 160 0 0 -1405z m410 993 c0
-326 -3 -426 -15 -473 -21 -89 -21 -918 0 -989 12 -40 15 -129 15 -493 l0
-443 -190 0 -190 0 0 1405 0 1405 190 0 190 0 0 -412z m468 65 l-3 -348 -150
-5 c-164 -6 -190 -14 -252 -73 l-33 -31 0 402 0 402 220 0 220 0 -2 -347z
m542 -54 l0 -401 -35 31 c-72 63 -83 66 -287 69 l-188 4 0 349 0 349 255 0
255 0 0 -401z m382 351 c16 -42 17 -134 17 -1236 1 -1179 1 -1191 -19 -1209
-26 -23 -26 -57 0 -73 18 -11 20 -23 20 -127 l0 -115 -183 0 -184 0 -6 313
c-6 317 4 677 21 733 17 53 40 90 81 127 41 37 71 49 123 51 33 1 35 9 7 47
-32 46 -73 62 -145 57 l-63 -4 -6 296 c-3 162 -8 496 -10 743 l-6 447 168 -2
167 -3 18 -45z m378 -1186 c0 -920 -3 -1233 -11 -1228 -7 4 -41 29 -76 55 -75
57 -111 62 -167 24 -20 -14 -48 -25 -62 -25 l-24 0 2 1154 3 1155 30 32 c50
53 97 69 208 69 l97 0 0 -1236z m300 123 c0 -1216 2 -1161 -58 -1283 -17 -33
-35 -83 -42 -112 -7 -30 -19 -56 -27 -59 -21 -8 -97 24 -124 53 -23 25 -24 31
-24 167 0 78 1 638 3 1245 l2 1102 135 0 135 0 0 -1113z m-1215 342 c25 -7 56
-28 83 -55 48 -51 52 -77 23 -159 -20 -56 -19 -58 -42 73 -12 72 -13 73 -32
54 -13 -13 -22 -41 -26 -78 l-7 -59 -42 88 c-23 51 -46 86 -52 82 -5 -3 -10
-27 -10 -52 l0 -47 -28 27 c-15 15 -31 27 -35 27 -4 0 -7 -18 -7 -40 0 -39 0
-39 -31 -33 l-32 6 5 -52 c3 -28 2 -50 -1 -49 -58 31 -62 32 -72 17 -5 -8 -9
-30 -10 -49 -1 -40 -13 -78 -21 -64 -3 5 -11 71 -18 147 -8 75 -17 137 -22
137 -14 0 -28 -39 -28 -79 0 -58 -16 -51 -31 14 -13 57 -42 115 -58 115 -6 0
-11 -19 -13 -42 l-3 -43 -25 42 c-14 24 -29 43 -33 43 -4 0 -5 -28 -1 -62 l7
-62 -30 34 c-38 43 -58 34 -50 -24 3 -23 9 -50 13 -61 6 -15 -3 -11 -39 15
-26 18 -50 30 -54 26 -4 -3 1 -28 10 -54 21 -59 21 -60 -3 -64 -20 -3 -20 -4
6 -41 26 -39 26 -39 8 -73 -18 -33 -18 -34 4 -72 12 -22 22 -56 22 -75 0 -42
74 -157 119 -184 38 -24 101 -85 101 -99 0 -6 18 -38 41 -70 33 -48 39 -65 35
-92 -5 -34 -54 -100 -145 -194 -39 -42 -50 -48 -86 -48 -85 1 -183 77 -205
159 -7 28 -10 186 -8 484 l3 442 27 47 c28 46 74 82 126 98 42 13 620 12 667
-1z m155 -587 c0 -59 -4 -122 -10 -141 -9 -34 -46 -81 -62 -81 -16 0 -7 90 18
186 15 55 29 111 31 126 11 60 23 11 23 -90z m-16 -469 c-28 -114 -110 -173
-241 -173 -80 0 -68 26 22 48 59 15 102 42 169 106 27 25 51 46 53 46 2 0 0
-12 -3 -27z m16 -563 l0 -420 -255 0 -255 0 0 375 0 375 71 0 c44 0 68 -4 64
-10 -3 -5 -13 -10 -21 -10 -27 0 -14 -20 14 -21 24 0 25 -1 9 -12 -51 -33 -54
-36 -26 -37 18 0 42 15 75 45 43 41 51 45 99 45 66 0 132 23 176 60 19 16 37
29 42 30 4 0 7 -189 7 -420z m-886 363 l93 -46 -45 -31 c-67 -46 -86 -77 -86
-139 1 -28 6 -65 13 -81 l12 -29 35 34 c19 19 63 78 97 132 50 78 70 101 103
117 45 22 76 25 105 10 18 -10 19 -25 19 -381 l0 -369 -222 2 -223 3 -3 413
c-1 226 0 412 3 412 2 0 47 -21 99 -47z m1413 -592 c43 -16 113 -45 156 -65
l78 -37 -3 -42 -3 -42 -162 -3 -163 -2 0 110 c0 64 4 110 10 110 5 0 44 -13
87 -29z m319 -155 l45 -35 -37 -7 c-47 -9 -68 4 -72 45 -4 40 8 39 64 -3z
m-2319 -102 l51 -7 22 -60 c39 -106 131 -178 340 -265 58 -24 -50 -11 -189 23
-263 65 -421 147 -471 245 -35 69 -33 70 88 70 59 0 130 -3 159 -6z m-297 -26
c11 -12 20 -27 20 -33 0 -26 64 -98 118 -133 32 -20 108 -57 170 -81 62 -24
111 -45 109 -47 -6 -6 -289 58 -362 81 -86 28 -197 81 -246 117 -27 20 -79 93
-79 111 0 4 56 7 125 7 115 0 126 -2 145 -22z m763 -30 c12 -96 79 -194 187
-271 25 -18 24 -18 -62 -13 -226 13 -466 160 -502 309 l-6 27 188 0 189 0 6
-52z m451 -25 c3 -43 8 -119 12 -169 l6 -92 -50 -7 c-104 -14 -229 31 -299
108 -42 46 -79 125 -92 190 l-8 47 212 0 213 0 6 -77z m556 63 c0 -34 -40
-137 -69 -180 -36 -52 -119 -117 -170 -135 -38 -12 -257 -15 -265 -3 -2 4 -9
64 -15 132 -6 69 -14 142 -16 163 l-5 37 270 0 c226 0 270 -2 270 -14z m400 9
c0 -2 -9 -29 -21 -60 -40 -108 -132 -171 -351 -240 -82 -26 -130 -35 -164 -33
l-48 3 56 42 c66 49 112 116 134 192 33 112 9 101 214 101 99 0 180 -2 180 -5z
m340 0 c0 -3 -9 -23 -20 -45 -42 -81 -128 -144 -270 -195 -97 -35 -333 -95
-368 -94 l-27 0 25 12 c215 96 291 157 330 265 l23 62 153 0 c85 0 154 -2 154
-5z m97 -17 c30 -28 29 -42 -2 -36 -28 6 -32 -3 -10 -22 23 -19 93 -6 124 24
28 27 55 32 80 17 22 -14 -55 -90 -124 -122 -90 -40 -393 -137 -472 -149 -37
-6 -79 -13 -93 -16 -47 -10 -6 12 85 45 188 70 272 127 316 214 38 75 55 83
96 45z"/>
<path d="M6883 8086 c3 -8 11 -32 16 -54 14 -49 117 -266 211 -441 116 -218
205 -338 323 -437 58 -49 68 -64 43 -64 -8 0 -24 -8 -37 -19 -21 -16 -22 -21
-9 -36 7 -9 36 -28 63 -41 45 -23 48 -27 42 -54 -9 -39 6 -62 59 -96 39 -25
44 -33 49 -73 5 -48 34 -82 108 -126 26 -15 35 -29 40 -58 9 -55 32 -76 92
-79 l51 -3 12 -48 c17 -65 27 -75 95 -88 54 -11 61 -15 84 -54 29 -51 99 -91
144 -82 34 7 71 -16 71 -44 0 -10 -15 -36 -34 -56 l-34 -37 -278 17 c-355 22
-324 23 -324 -13 0 -22 12 -43 42 -76 l41 -45 -21 -29 c-29 -39 -28 -58 7
-106 16 -21 35 -59 44 -83 19 -59 50 -89 104 -104 33 -8 42 -15 37 -27 -4 -8
-9 -36 -11 -62 -5 -46 -5 -47 33 -66 22 -11 57 -23 79 -27 54 -9 65 -21 58
-56 -3 -19 1 -38 12 -55 17 -26 19 -27 96 -21 l79 6 14 -32 c30 -71 94 -103
160 -80 21 7 74 13 118 13 75 0 81 2 110 30 20 20 34 28 42 22 32 -26 58 -24
90 6 23 22 47 33 91 41 47 8 66 18 88 41 21 24 46 36 105 51 42 11 78 22 80
24 10 10 -36 64 -179 212 -87 90 -161 174 -165 187 -4 16 6 47 31 96 l36 72
77 -8 c109 -13 352 -6 452 11 47 8 102 15 124 15 31 0 45 7 72 35 18 19 41 35
51 35 44 0 98 24 128 57 29 32 37 35 71 31 43 -6 78 8 134 53 57 46 191 103
440 187 129 44 257 90 284 101 76 33 180 107 230 162 81 90 60 91 -87 5 -131
-78 -261 -136 -382 -171 -185 -53 -212 -55 -836 -55 -531 0 -579 1 -595 17
-14 15 -16 30 -10 108 7 98 16 115 68 115 36 0 35 11 -4 51 -65 64 -129 109
-158 109 -39 0 -119 -66 -175 -143 -81 -111 -158 -134 -249 -76 -27 16 -180
124 -340 238 -160 115 -338 234 -396 266 -217 117 -407 261 -567 428 -116 121
-162 187 -242 352 -47 96 -77 145 -87 145 -10 0 -14 -6 -11 -14z"/>
<path d="M11960 4955 c-58 -7 -161 -23 -230 -35 -73 -12 -201 -24 -305 -29
-110 -4 -189 -12 -202 -19 -29 -16 -49 -55 -57 -113 -11 -76 -2 -92 79 -143
40 -25 79 -46 87 -46 8 0 32 -9 54 -19 77 -38 108 -37 172 2 89 54 179 97 205
97 25 0 26 -1 80 -120 18 -41 47 -88 63 -105 25 -25 29 -35 23 -57 -6 -23 -3
-32 18 -48 14 -11 29 -20 33 -20 5 0 11 -19 15 -42 4 -24 24 -72 45 -108 21
-36 50 -95 65 -130 23 -56 35 -72 91 -114 64 -48 117 -117 148 -191 10 -22 24
-37 40 -41 15 -3 36 -20 48 -37 l22 -30 28 34 28 33 0 -40 c0 -36 13 -64 30
-64 10 0 30 48 30 73 1 20 3 19 29 -12 l28 -34 7 101 c14 187 -13 568 -49 706
-9 33 -33 93 -55 134 l-38 74 70 66 c38 37 84 76 102 86 31 19 32 18 76 -2 57
-26 68 -19 36 21 -14 18 -35 48 -47 68 -34 59 -62 69 -252 90 -239 27 -391 31
-517 14z"/>
<path d="M6502 4450 c4 -48 -2 -50 -26 -9 -22 37 -41 33 -41 -9 0 -25 -3 -31
-17 -26 -19 6 -24 -7 -33 -94 -5 -45 -14 -71 -32 -92 -18 -22 -22 -34 -15 -47
5 -10 12 -76 15 -148 6 -123 8 -134 41 -198 27 -53 31 -67 18 -63 -9 2 -61 12
-114 22 -110 19 -122 16 -133 -42 -3 -19 -22 -66 -41 -103 -47 -88 -47 -157
-1 -229 17 -26 152 -86 212 -93 100 -12 119 6 174 174 13 37 25 67 28 67 3 0
37 -16 77 -35 140 -69 286 -78 626 -39 158 18 183 25 213 66 28 38 15 46 -22
15 -34 -29 -80 -42 -113 -32 -13 3 -94 41 -181 83 -181 88 -189 99 -102 140
28 13 51 25 53 27 1 1 -8 22 -20 46 l-23 44 -112 5 c-128 6 -139 11 -173 93
-12 29 -41 91 -65 138 -40 80 -52 120 -86 297 -14 74 -25 85 -40 42 l-11 -31
-25 35 c-13 20 -26 36 -29 36 -4 0 -4 -18 -2 -40z"/>
<path d="M5305 2240 c-41 -9 -60 -20 -140 -85 -74 -59 -448 -288 -525 -320
-40 -17 -66 -19 -227 -17 -205 3 -259 -5 -269 -42 -3 -13 1 -37 10 -54 13 -25
13 -32 1 -48 -20 -26 -18 -47 6 -78 l21 -26 -21 -34 c-32 -51 -28 -75 18 -94
36 -15 39 -19 34 -48 -7 -42 11 -72 50 -82 31 -8 32 -11 38 -68 3 -33 9 -66
13 -72 10 -16 39 -15 81 2 34 15 35 14 49 -13 25 -48 41 -55 65 -30 59 64 140
277 141 374 1 55 16 62 39 17 11 -22 29 -47 39 -54 11 -7 40 -43 66 -80 48
-68 79 -98 104 -98 7 0 29 -16 48 -36 31 -33 37 -36 73 -30 36 5 41 3 66 -30
26 -34 31 -36 70 -31 39 6 44 3 79 -33 37 -40 67 -49 95 -31 11 7 25 1 48 -20
41 -36 48 -36 70 -1 9 15 18 29 19 30 1 2 19 -15 39 -37 46 -50 80 -55 88 -12
3 15 3 39 0 52 -6 20 3 16 54 -28 85 -74 128 -69 87 8 -8 17 -14 32 -12 34 2
2 32 -15 67 -36 70 -42 125 -54 100 -21 -7 9 -31 36 -53 60 -22 23 -37 42 -33
42 4 0 44 -18 88 -41 91 -45 117 -42 73 10 -14 18 -24 34 -21 37 3 3 22 1 44
-5 86 -24 85 -5 -2 40 -36 19 -65 37 -65 42 0 4 27 7 61 7 98 0 132 32 46 45
-177 26 -239 59 -587 309 -167 119 -189 137 -184 151 7 17 123 1 244 -35 58
-18 130 -34 161 -37 69 -7 162 18 183 49 9 12 14 23 13 24 -2 2 -23 -4 -47
-12 -82 -29 -125 -17 -340 90 -107 54 -201 104 -209 111 -32 31 26 117 104
154 34 16 55 20 85 15 22 -4 40 -3 40 1 0 13 -62 85 -82 96 -36 19 -72 26
-103 19z"/>
<path d="M8990 2028 c0 -38 25 -120 54 -176 15 -30 26 -55 24 -57 -2 -2 -52
41 -113 96 -107 95 -140 114 -151 85 -8 -20 14 -58 96 -165 39 -51 69 -95 66
-98 -2 -3 -39 23 -81 56 -102 81 -159 114 -185 106 -11 -3 -20 -12 -20 -19 0
-19 58 -107 98 -148 42 -44 40 -45 -19 -18 -24 11 -62 20 -85 20 l-41 0 7 -46
c4 -25 17 -59 29 -75 22 -29 22 -31 6 -66 -23 -47 -16 -129 12 -169 17 -23 20
-39 16 -70 -7 -53 24 -114 72 -143 20 -11 44 -35 53 -52 9 -18 37 -62 61 -98
25 -36 55 -95 68 -130 13 -35 40 -93 59 -128 20 -34 33 -63 30 -63 -4 0 -44
21 -89 47 -165 94 -380 193 -418 193 -38 0 -44 -4 -199 -128 -73 -59 -85 -73
-84 -98 0 -16 4 -36 8 -44 4 -11 -3 -21 -24 -33 -44 -26 -49 -61 -15 -97 l28
-29 -27 -32 c-20 -24 -26 -41 -24 -67 3 -30 9 -39 43 -56 21 -12 54 -41 72
-66 82 -110 88 -116 195 -161 59 -25 129 -46 163 -51 33 -4 96 -14 140 -22 96
-18 354 -31 416 -22 36 5 59 20 119 72 41 36 82 69 90 73 9 5 62 -5 135 -25
152 -43 361 -64 463 -46 37 6 186 39 332 73 230 54 282 62 393 67 70 2 127 7
127 10 0 3 -22 31 -48 61 -27 31 -52 69 -56 85 -4 16 -22 44 -39 61 -27 27
-45 35 -107 45 -41 7 -79 15 -83 17 -20 12 38 33 173 63 424 94 565 141 917
305 232 109 444 296 491 434 7 19 10 36 7 39 -6 6 -43 -18 -99 -68 -45 -38
-51 -40 -94 -35 l-47 6 -130 -102 c-229 -180 -295 -216 -550 -306 -211 -75
-200 -72 -948 -240 -86 -19 -124 -24 -135 -16 -27 16 -57 79 -107 223 -26 74
-56 152 -66 173 -28 53 -129 166 -387 432 -220 226 -309 324 -485 538 -48 59
-92 107 -98 107 -5 0 -9 -10 -9 -22z"/>
</g>
</svg>
