<?xml version="1.0" standalone="no"?>
<!DOCTYPE svg PUBLIC "-//W3C//DTD SVG 20010904//EN"
 "http://www.w3.org/TR/2001/REC-SVG-20010904/DTD/svg10.dtd">
<svg version="1.0" xmlns="http://www.w3.org/2000/svg"
 width="250px" height="150px" viewBox="0 0 1280.000000 800.000000"
 preserveAspectRatio="xMidYMid meet">
<metadata>
Created by potrace 1.15, written by Peter Selinger 2001-2017
</metadata>
<g transform="translate(0.000000,800.000000) scale(0.100000,-0.100000)"
fill="#000000" stroke="none">
<path d="M6705 7989 c-4 -6 -13 -8 -21 -5 -9 4 -17 -8 -24 -37 -6 -23 -19 -69
-30 -102 -10 -33 -21 -80 -24 -105 -8 -58 -72 -255 -97 -300 -24 -41 -115 -94
-285 -163 -188 -77 -564 -274 -564 -296 0 -5 33 -77 73 -162 41 -85 79 -165
85 -179 12 -24 12 -24 6 8 -8 43 18 82 105 165 76 71 231 197 301 244 25 17
126 77 225 134 99 57 187 113 197 124 16 20 16 19 62 -13 25 -18 98 -56 163
-83 177 -76 313 -141 313 -150 0 -5 -31 -68 -68 -141 -38 -73 -81 -162 -97
-197 -27 -62 -28 -64 -40 -40 -10 20 -23 70 -30 114 -2 13 -14 46 -26 67 -5
10 -9 24 -9 31 0 44 -119 95 -226 98 -98 2 -137 -8 -184 -48 -37 -32 -79 -93
-64 -93 4 0 0 -7 -7 -16 -7 -9 -15 -30 -16 -48 -4 -52 -34 -189 -48 -221 -16
-38 -8 -133 13 -157 8 -10 28 -18 44 -18 22 0 31 -6 38 -27 5 -16 16 -41 25
-56 8 -16 13 -33 10 -38 -3 -4 1 -35 10 -68 21 -81 18 -154 -8 -230 -21 -61
-24 -65 -72 -83 -27 -11 -57 -26 -66 -34 -28 -25 -55 -16 -84 27 -15 23 -85
98 -156 168 l-130 126 -35 95 c-58 159 -107 281 -110 277 -2 -2 13 -48 32
-103 72 -198 127 -406 159 -597 18 -109 20 -102 -44 -177 l-30 -35 -50 108
c-28 60 -76 152 -108 205 -31 53 -71 129 -90 168 -42 92 -139 375 -163 479
-11 44 -28 116 -39 160 -12 44 -18 88 -15 97 3 9 36 40 74 68 39 29 70 53 70
55 0 6 -84 151 -132 227 -88 142 -213 311 -338 457 l-20 23 -47 -52 c-247
-273 -606 -856 -738 -1198 -126 -327 -155 -721 -84 -1147 20 -123 57 -282 86
-369 l16 -49 42 169 c51 200 106 355 185 519 60 125 159 282 205 325 l26 24
47 -24 c207 -110 448 -282 695 -498 60 -52 112 -91 116 -86 4 5 43 56 86 114
113 150 166 215 178 215 18 0 76 -118 97 -199 34 -131 27 -130 105 -14 38 57
103 148 144 202 l75 99 35 -42 c126 -151 338 -477 458 -705 286 -543 439
-1071 471 -1621 8 -125 8 -129 21 -90 17 53 28 318 18 447 -4 57 -9 159 -12
228 -5 144 -19 205 -80 344 -68 158 -93 286 -79 408 l7 61 25 -48 c13 -27 42
-94 64 -149 259 -654 296 -1401 107 -2176 -42 -171 -144 -476 -218 -648 -87
-203 -227 -480 -237 -469 -2 2 5 30 15 63 25 80 38 143 51 244 15 118 17 140
13 140 -1 0 -26 -46 -54 -102 -89 -179 -206 -366 -322 -518 l-50 -65 8 90 c5
50 9 153 10 230 1 77 5 152 10 168 5 18 3 27 -4 27 -6 0 -11 7 -11 15 0 7 -8
18 -17 24 -13 7 -17 25 -18 80 -2 69 -4 75 -56 154 -30 45 -65 103 -77 128
-29 58 -79 109 -167 171 -83 59 -142 91 -158 85 -7 -2 -48 15 -92 39 -44 23
-107 50 -140 59 -33 9 -94 27 -135 40 -41 13 -100 31 -131 40 -65 18 -61 11
-103 210 -44 214 -59 364 -60 602 l-1 222 -35 -27 c-19 -14 -70 -54 -112 -89
-43 -35 -80 -63 -83 -63 -10 0 -5 241 10 391 46 483 193 972 391 1300 19 31
34 62 34 68 0 9 -180 152 -645 510 -111 85 -121 91 -134 74 -32 -43 -153 -309
-195 -430 -176 -516 -247 -1198 -176 -1681 100 -680 480 -1385 1059 -1962 127
-126 321 -299 321 -285 0 3 -32 65 -71 137 -154 281 -298 609 -399 905 -33 96
-60 181 -60 188 0 8 33 0 101 -24 l101 -36 37 -120 c154 -496 443 -993 767
-1319 l88 -89 25 29 c14 16 45 52 68 79 l43 50 0 -31 c0 -16 -6 -39 -14 -50
-13 -17 -12 -23 5 -51 27 -44 18 -105 -31 -208 -56 -117 -68 -225 -47 -445 19
-202 23 -215 73 -223 45 -8 72 5 80 38 8 33 22 32 26 -1 6 -50 38 -54 108 -13
8 5 25 13 38 19 12 5 22 14 22 20 0 5 11 10 25 10 18 0 25 5 25 19 0 40 -22
75 -85 135 -58 55 -67 69 -81 124 -15 57 -15 66 0 103 9 22 14 44 11 48 -2 5
-39 14 -82 21 l-78 13 55 13 c30 7 69 14 85 16 27 3 30 0 33 -29 l3 -31 117
-21 c773 -140 1691 -210 2227 -171 1113 82 2181 463 3488 1243 92 55 167 103
167 107 0 18 -461 133 -745 185 -970 178 -2055 157 -2900 -56 -237 -60 -257
-69 -364 -171 -468 -443 -1158 -823 -1819 -1002 -70 -19 -140 -37 -156 -41
l-28 -6 6 58 c7 51 17 103 32 155 4 15 -1 15 -66 -2 -38 -10 -70 -17 -70 -15
0 3 69 57 188 149 11 8 12 2 6 -30 -3 -21 -11 -47 -16 -57 -5 -10 -5 -17 0
-17 5 0 70 21 143 46 677 231 1381 647 1869 1102 250 233 425 436 595 692 310
466 476 952 535 1570 17 180 26 331 20 335 -3 2 -61 -5 -130 -15 -414 -61
-977 -263 -1273 -457 l-87 -58 -4 -200 c-9 -427 -113 -830 -336 -1291 -277
-575 -671 -1071 -1223 -1539 -37 -32 -70 -56 -72 -53 -3 3 6 43 20 89 14 46
31 108 37 137 7 30 18 52 25 52 20 0 318 302 429 435 366 439 621 890 748
1320 208 710 164 1574 -115 2278 -39 99 -126 277 -151 310 -12 16 -37 -1 -298
-202 -235 -182 -286 -217 -288 -201 -3 20 8 61 47 174 11 32 27 91 35 132 l14
74 -27 -19 c-14 -10 -81 -67 -148 -125 -68 -58 -124 -106 -127 -106 -2 0 -38
47 -80 105 -42 58 -120 157 -172 221 -92 113 -94 118 -94 168 0 104 50 326
120 538 49 147 112 308 121 308 12 0 19 -43 19 -118 0 -70 -1 -74 -29 -90 -21
-12 -31 -26 -35 -53 -3 -21 -17 -50 -30 -66 -27 -32 -53 -179 -42 -237 12 -62
60 -120 121 -146 30 -13 60 -29 66 -37 16 -19 52 -16 65 5 7 10 69 87 138 171
70 84 136 171 147 193 30 58 160 457 162 495 1 24 -7 41 -29 64 -39 41 -193
156 -274 204 -36 22 -67 40 -69 42 -2 1 20 42 48 89 29 48 53 91 54 96 2 11
-37 25 -208 74 -71 20 -155 49 -186 65 -50 25 -58 34 -77 81 -36 92 -64 199
-73 283 -4 44 -13 112 -18 150 -6 39 -10 76 -11 83 0 15 -16 16 -25 1z m571
-2937 c-13 -58 -46 -255 -46 -279 0 -5 -20 28 -44 72 -23 44 -52 95 -64 114
l-20 34 91 72 c51 39 93 68 95 63 2 -4 -3 -39 -12 -76z m-1985 -2202 c16 -94
54 -257 85 -366 5 -20 4 -20 -103 6 -118 29 -240 81 -291 125 -55 47 -75 97
-70 179 3 46 12 85 26 111 27 50 134 165 232 249 l75 65 13 -127 c7 -70 21
-179 33 -242z"/>
<path d="M7579 7622 c-142 -172 -267 -349 -253 -361 5 -4 59 -27 119 -50 143
-56 394 -176 422 -203 25 -23 29 -52 13 -92 -5 -15 -16 -70 -24 -124 -31 -204
-132 -525 -228 -722 -33 -69 -81 -177 -105 -240 -25 -63 -60 -140 -78 -170
-18 -30 -37 -66 -40 -80 -7 -23 -7 -23 12 -10 12 8 72 53 134 99 114 83 319
210 373 231 36 13 54 -2 125 -104 132 -191 243 -461 324 -785 l34 -135 16 50
c57 173 102 419 119 649 19 271 -14 564 -92 796 -91 275 -419 845 -652 1135
-66 83 -155 184 -161 184 -1 0 -27 -31 -58 -68z"/>
<path d="M2234 6944 c-11 -61 3 -550 21 -694 59 -495 182 -955 345 -1297 l59
-123 43 0 c59 0 255 -25 353 -45 357 -73 760 -228 1113 -429 35 -20 66 -36 68
-36 2 0 -11 30 -27 68 -107 235 -173 476 -204 739 -16 136 -19 444 -6 578 8
76 7 82 -18 119 -14 22 -78 92 -142 156 -383 383 -936 747 -1429 939 -180 70
-168 69 -176 25z"/>
<path d="M10445 6941 c-428 -163 -858 -417 -1229 -727 -120 -100 -379 -357
-408 -404 -12 -20 -14 -42 -7 -110 11 -126 10 -427 -1 -538 -29 -262 -104
-541 -210 -778 -16 -35 -27 -64 -25 -64 3 0 35 18 71 41 279 170 743 349 1085
418 124 25 316 51 376 51 l43 0 40 81 c236 469 390 1189 390 1824 0 190 -4
245 -19 245 -3 0 -51 -18 -106 -39z"/>
<path d="M1055 5458 c-11 -52 -25 -198 -31 -336 -25 -568 148 -1187 496 -1777
207 -349 589 -666 1152 -953 287 -147 525 -240 842 -329 12 -3 -11 32 -61 93
-353 439 -568 806 -726 1244 -136 377 -217 805 -217 1147 0 60 -1 63 -60 137
-178 224 -631 533 -1000 681 -103 42 -343 115 -377 115 -7 0 -15 -10 -18 -22z"/>
<path d="M11655 5464 c-221 -65 -397 -133 -566 -220 -276 -141 -542 -344 -720
-547 l-79 -91 0 -81 c0 -787 -335 -1619 -962 -2392 -33 -40 -57 -73 -55 -73 3
0 45 11 93 25 688 197 1455 656 1786 1070 279 348 515 934 593 1470 32 221 37
574 10 774 -13 91 -12 91 -100 65z"/>
<path d="M6028 5182 c-269 -469 -445 -980 -512 -1487 -19 -141 -30 -275 -23
-275 3 0 58 38 122 84 65 46 176 115 247 152 95 51 157 92 229 154 63 54 95
88 89 94 -17 17 -11 52 15 90 21 31 25 49 25 110 0 59 7 93 40 187 40 112 40
116 34 214 -3 55 -12 145 -20 200 -16 113 -94 409 -124 470 -11 22 -20 50 -20
63 0 25 -16 62 -28 62 -4 0 -37 -53 -74 -118z"/>
<path d="M2778 4565 c-8 -9 28 -404 53 -575 80 -543 263 -1002 569 -1430 295
-413 761 -836 1270 -1152 356 -221 775 -424 1122 -542 143 -49 293 -89 308
-84 6 2 -22 28 -62 58 -254 193 -662 584 -868 830 -532 639 -819 1256 -890
1915 -6 55 -10 179 -9 275 l2 175 -79 52 c-44 28 -142 83 -219 121 -322 161
-671 275 -1015 332 -69 11 -137 22 -151 25 -15 2 -28 2 -31 0z"/>
<path d="M6471 3350 c-56 -27 -184 -103 -284 -169 -100 -65 -247 -154 -326
-197 -78 -44 -163 -97 -188 -118 l-45 -39 87 -44 c48 -23 114 -61 146 -83 32
-22 63 -40 67 -40 5 0 16 -8 25 -18 13 -15 83 -52 259 -139 14 -7 34 -13 43
-13 9 0 19 -9 22 -19 5 -19 31 -33 143 -73 42 -16 83 -21 176 -22 l120 -1 23
215 c18 170 22 257 19 415 -3 195 -4 202 -31 260 -35 75 -91 135 -127 135 -15
0 -73 -22 -129 -50z"/>
<path d="M7326 3090 c-100 -329 -201 -717 -237 -910 -14 -77 -22 -170 -25
-280 l-5 -165 40 91 c158 368 271 920 259 1264 l-3 95 -29 -95z"/>
<path d="M1685 1964 c-27 -2 -122 -9 -210 -15 -367 -25 -737 -79 -1065 -155
-128 -30 -400 -115 -400 -125 0 -15 466 -287 757 -443 747 -399 1466 -668
2138 -800 690 -136 1344 -148 2215 -41 303 38 1048 150 1058 159 1 2 -26 9
-60 15 -727 139 -1511 538 -2089 1063 -126 114 -136 119 -411 187 -255 64
-544 109 -908 142 -111 10 -923 20 -1025 13z"/>
</g>
</svg>
